<svg xmlns="http://www.w3.org/2000/svg" width="283" height="63" fill="none"><path fill="#fff" d="M19.454 40V22.546h2.591v2.727h.228c.363-.932.95-1.656 1.761-2.17.81-.524 1.784-.785 2.92-.785 1.152 0 2.11.261 2.875.784.773.515 1.375 1.239 1.807 2.17h.182a5.085 5.085 0 0 1 2.012-2.147c.894-.538 1.965-.807 3.215-.807 1.561 0 2.838.489 3.83 1.466.992.97 1.489 2.481 1.489 4.534V40h-2.682V28.318c0-1.288-.352-2.208-1.057-2.761-.705-.553-1.534-.83-2.489-.83-1.227 0-2.178.372-2.852 1.114-.674.735-1.011 1.667-1.011 2.795V40h-2.728V28.046c0-.993-.322-1.792-.966-2.398-.643-.614-1.473-.92-2.488-.92-.697 0-1.349.185-1.955.556a4.205 4.205 0 0 0-1.454 1.546c-.364.651-.546 1.405-.546 2.26V40h-2.681Zm27.813 0V22.546h2.682V40h-2.682Zm1.364-20.364c-.523 0-.974-.178-1.353-.534a1.716 1.716 0 0 1-.556-1.284c0-.5.185-.928.556-1.284.38-.356.83-.534 1.353-.534.522 0 .97.178 1.34.534.38.356.569.784.569 1.284s-.19.928-.568 1.284a1.868 1.868 0 0 1-1.341.534Zm8.912 9.864V40H54.86V22.546h2.59v2.727h.228a4.985 4.985 0 0 1 1.864-2.137c.833-.545 1.909-.818 3.227-.818 1.182 0 2.216.243 3.102.727.886.478 1.576 1.205 2.068 2.182.493.97.739 2.197.739 3.682V40h-2.682V29.09c0-1.37-.356-2.439-1.068-3.204-.712-.772-1.69-1.159-2.932-1.159-.856 0-1.621.186-2.295.557-.667.371-1.194.913-1.58 1.625-.386.712-.58 1.576-.58 2.591Zm23.355 10.864c-1.682 0-3.133-.372-4.352-1.114-1.213-.75-2.148-1.795-2.807-3.136-.652-1.349-.978-2.917-.978-4.705 0-1.788.326-3.363.978-4.727.659-1.371 1.575-2.44 2.75-3.205 1.181-.773 2.56-1.159 4.136-1.159.91 0 1.807.152 2.693.455a6.674 6.674 0 0 1 2.42 1.477c.728.674 1.308 1.568 1.74 2.682.431 1.114.647 2.485.647 4.114v1.136H74.671v-2.318h10.727c0-.985-.197-1.864-.591-2.637a4.452 4.452 0 0 0-1.66-1.83c-.711-.446-1.552-.67-2.522-.67-1.068 0-1.992.265-2.773.796a5.232 5.232 0 0 0-1.784 2.045 6.008 6.008 0 0 0-.625 2.705v1.545c0 1.318.228 2.436.682 3.352.462.91 1.102 1.603 1.92 2.08.819.47 1.77.705 2.853.705.704 0 1.34-.099 1.909-.296a4.088 4.088 0 0 0 1.489-.909c.416-.41.738-.917.965-1.523l2.591.728a5.745 5.745 0 0 1-1.375 2.318c-.644.659-1.44 1.174-2.386 1.545-.947.364-2.011.546-3.193.546Zm18.398 0c-1.637 0-3.046-.387-4.228-1.16-1.182-.772-2.09-1.837-2.727-3.193-.636-1.356-.955-2.905-.955-4.647 0-1.773.326-3.338.978-4.694.659-1.363 1.575-2.428 2.75-3.193 1.181-.773 2.56-1.159 4.136-1.159 1.227 0 2.333.227 3.318.682a6.356 6.356 0 0 1 2.421 1.91c.628.817 1.019 1.772 1.17 2.863h-2.682c-.204-.796-.659-1.5-1.363-2.114-.697-.621-1.637-.932-2.819-.932-1.045 0-1.962.273-2.75.819-.78.537-1.39 1.299-1.83 2.284-.43.977-.647 2.125-.647 3.443 0 1.348.212 2.522.636 3.522.432 1 1.038 1.777 1.819 2.33.788.553 1.712.83 2.773.83.696 0 1.329-.122 1.897-.364a3.916 3.916 0 0 0 1.443-1.046c.394-.454.675-1 .841-1.636h2.682a6.201 6.201 0 0 1-1.125 2.784c-.591.818-1.375 1.47-2.352 1.955-.97.477-2.099.716-3.386.716Zm15.92.045c-1.106 0-2.11-.208-3.011-.625a5.164 5.164 0 0 1-2.148-1.83c-.53-.803-.796-1.772-.796-2.909 0-1 .197-1.81.591-2.431a4.173 4.173 0 0 1 1.58-1.478 8.295 8.295 0 0 1 2.182-.795 26.543 26.543 0 0 1 2.42-.432c1.061-.136 1.921-.238 2.58-.307.666-.076 1.151-.2 1.454-.375.311-.174.466-.477.466-.909v-.09c0-1.122-.307-1.993-.92-2.614-.606-.622-1.527-.932-2.762-.932-1.28 0-2.284.28-3.011.84-.727.561-1.239 1.16-1.534 1.796l-2.546-.909c.455-1.06 1.061-1.886 1.819-2.477a6.81 6.81 0 0 1 2.5-1.25 10.379 10.379 0 0 1 2.681-.364c.561 0 1.205.068 1.932.205a6.185 6.185 0 0 1 2.125.806c.69.41 1.262 1.027 1.716 1.853.455.826.682 1.932.682 3.318V40h-2.682v-2.364h-.136c-.182.38-.485.784-.909 1.216-.425.432-.989.8-1.694 1.103-.704.303-1.564.454-2.579.454Zm.409-2.409c1.061 0 1.955-.208 2.682-.625.735-.417 1.288-.955 1.659-1.614a4.11 4.11 0 0 0 .568-2.08v-2.454c-.114.137-.364.262-.75.375-.379.106-.818.201-1.318.284-.493.076-.974.144-1.443.205-.462.053-.837.098-1.125.136-.697.091-1.349.239-1.955.444-.598.196-1.083.496-1.454.897-.364.394-.546.932-.546 1.614 0 .932.345 1.636 1.034 2.113.697.47 1.58.705 2.648.705Zm12.486 2V22.546h2.591v2.636h.182c.318-.864.893-1.565 1.727-2.102.833-.538 1.773-.807 2.818-.807.197 0 .443.003.739.011.295.008.519.019.67.034v2.727a7.878 7.878 0 0 0-.625-.102 6.148 6.148 0 0 0-1.011-.08c-.849 0-1.606.179-2.273.535a4.027 4.027 0 0 0-1.568 1.454c-.379.614-.568 1.315-.568 2.102V40h-2.682Zm20.591-17.454v2.272h-9.046v-2.273h9.046Zm-6.409-4.182h2.681V35c0 .758.11 1.326.33 1.705.227.37.515.62.864.75.356.12.731.181 1.125.181.295 0 .537-.015.727-.045l.454-.091.546 2.41a5.474 5.474 0 0 1-.761.204c-.326.075-.739.113-1.239.113-.758 0-1.5-.163-2.227-.488a4.421 4.421 0 0 1-1.796-1.489c-.47-.667-.704-1.508-.704-2.523V18.364ZM161.736 40V22.546h2.591v2.636h.182c.318-.864.893-1.565 1.727-2.102.833-.538 1.773-.807 2.818-.807.197 0 .443.003.739.011.295.008.519.019.67.034v2.727a7.878 7.878 0 0 0-.625-.102 6.148 6.148 0 0 0-1.011-.08c-.849 0-1.606.179-2.273.535a4.027 4.027 0 0 0-1.568 1.454c-.379.614-.568 1.315-.568 2.102V40h-2.682Zm18.466.364c-1.576 0-2.959-.375-4.148-1.125-1.182-.75-2.106-1.8-2.773-3.148-.659-1.349-.988-2.924-.988-4.727 0-1.819.329-3.406.988-4.762.667-1.356 1.591-2.409 2.773-3.159 1.189-.75 2.572-1.125 4.148-1.125 1.575 0 2.954.375 4.136 1.125 1.189.75 2.114 1.803 2.773 3.16.666 1.355 1 2.942 1 4.76 0 1.804-.334 3.38-1 4.728-.659 1.348-1.584 2.398-2.773 3.148-1.182.75-2.561 1.125-4.136 1.125Zm0-2.41c1.197 0 2.182-.306 2.954-.92.773-.614 1.345-1.42 1.716-2.42s.557-2.084.557-3.25c0-1.167-.186-2.254-.557-3.262-.371-1.007-.943-1.822-1.716-2.443-.772-.621-1.757-.932-2.954-.932-1.197 0-2.182.31-2.955.932-.773.621-1.345 1.436-1.716 2.443-.371 1.008-.557 2.095-.557 3.262 0 1.166.186 2.25.557 3.25.371 1 .943 1.806 1.716 2.42.773.614 1.758.92 2.955.92Zm23.003-5.09V22.546h2.681V40h-2.681v-2.955h-.182c-.409.887-1.046 1.64-1.909 2.262-.864.613-1.955.92-3.273.92-1.091 0-2.061-.238-2.909-.716-.849-.485-1.515-1.212-2-2.181-.485-.978-.727-2.209-.727-3.694v-11.09h2.681v10.909c0 1.272.356 2.287 1.069 3.045.719.758 1.636 1.136 2.75 1.136.666 0 1.344-.17 2.034-.511.697-.34 1.28-.864 1.75-1.568.477-.705.716-1.602.716-2.693Zm15.184-10.318v2.272h-9.045v-2.273h9.045Zm-6.409-4.182h2.682V35c0 .758.11 1.326.329 1.705.228.37.516.62.864.75.356.12.731.181 1.125.181.296 0 .538-.015.727-.045l.455-.091.545 2.41a5.396 5.396 0 0 1-.761.204c-.326.075-.739.113-1.239.113-.757 0-1.5-.163-2.227-.488a4.419 4.419 0 0 1-1.795-1.489c-.47-.667-.705-1.508-.705-2.523V18.364ZM222.423 40V22.546h2.682V40h-2.682Zm1.364-20.364c-.523 0-.974-.178-1.352-.534a1.713 1.713 0 0 1-.557-1.284c0-.5.185-.928.557-1.284a1.904 1.904 0 0 1 1.352-.534c.523 0 .97.178 1.341.534.379.356.568.784.568 1.284s-.189.928-.568 1.284a1.867 1.867 0 0 1-1.341.534Zm8.912 9.864V40h-2.682V22.546h2.591v2.727h.227a4.987 4.987 0 0 1 1.864-2.137c.833-.545 1.909-.818 3.227-.818 1.182 0 2.216.243 3.102.727.887.478 1.576 1.205 2.069 2.182.492.97.738 2.197.738 3.682V40h-2.682V29.09c0-1.37-.356-2.439-1.068-3.204-.712-.772-1.689-1.159-2.932-1.159-.856 0-1.621.186-2.295.557-.667.371-1.193.913-1.58 1.625-.386.712-.579 1.576-.579 2.591Zm23.082 17.41c-1.295 0-2.409-.168-3.341-.5-.931-.327-1.708-.758-2.329-1.296a7.087 7.087 0 0 1-1.466-1.705l2.136-1.5c.243.318.549.682.921 1.091.371.417.878.776 1.522 1.08.652.31 1.504.465 2.557.465 1.409 0 2.572-.34 3.489-1.022.917-.682 1.375-1.75 1.375-3.205v-3.545h-.227a14.61 14.61 0 0 1-.841 1.181c-.356.463-.872.876-1.546 1.24-.666.355-1.568.533-2.704.533-1.409 0-2.675-.333-3.796-1-1.113-.666-1.996-1.636-2.647-2.909-.644-1.273-.966-2.818-.966-4.636 0-1.788.314-3.345.943-4.67.629-1.334 1.504-2.364 2.625-3.091 1.121-.735 2.416-1.103 3.886-1.103 1.137 0 2.038.19 2.705.568.674.372 1.189.796 1.545 1.273.364.47.644.856.841 1.16h.273v-2.773h2.591V40.5c0 1.5-.341 2.72-1.023 3.66-.674.946-1.583 1.64-2.727 2.079-1.137.447-2.402.67-3.796.67Zm-.091-9.592c1.076 0 1.985-.246 2.728-.738.742-.493 1.306-1.201 1.693-2.125.386-.925.579-2.03.579-3.319 0-1.257-.189-2.367-.568-3.33-.379-.961-.939-1.715-1.682-2.26-.742-.546-1.659-.819-2.75-.819-1.136 0-2.083.288-2.841.864-.75.576-1.314 1.348-1.693 2.318-.371.97-.557 2.046-.557 3.227 0 1.213.19 2.284.569 3.216.386.925.954 1.652 1.704 2.182.758.523 1.697.784 2.818.784Z"/><path stroke="red" stroke-linecap="round" stroke-width="3" d="M157.5 54.5h116"/><path stroke="#FFEA00" stroke-linecap="round" stroke-width="3" d="M8.5 10.5v38"/><path stroke="#000DFF" stroke-linecap="round" stroke-width="3" d="M197.5 8.099h57s10.121-1.163 15.5 4.5c5.11 5.379 4.5 14.5 4.5 14.5v26"/><circle cx="274.5" cy="54.5" r="6.5" fill="#fff" stroke="#000" stroke-width="4"/><circle cx="155.5" cy="54.5" r="6.5" fill="#fff" stroke="#000" stroke-width="4"/><circle cx="199.5" cy="8.5" r="6.5" fill="#fff" stroke="#000" stroke-width="4"/><circle cx="8.5" cy="54.5" r="6.5" fill="#fff" stroke="#000" stroke-width="4"/><circle cx="8.5" cy="8.5" r="6.5" fill="#fff" stroke="#000" stroke-width="4"/></svg>